Format                                   : Matroska
Format version                           : Version 4 / Version 2
File size                                : 7.56 GiB
Duration                                 : 1h 39mn
Overall bit rate                         : 10.9 Mbps
Movie name                               : Movie 43 (2013) by CMEGroup
Encoded date                             : UTC 2013-02-27 17:04:09
Writing application                      : mkvmerge v6.0.0 ('Coming Up For Air') built on Jan 20 2013 09:52:00
Writing library                          : libebml v1.3.0 + libmatroska v1.4.0

Video
ID                                       : 1
Format                                   : AVC
Format/Info                              : Advanced Video Codec
Format profile                           : High@L4.1
Format settings, CABAC                   : Yes
Format settings, ReFrames                : 4 frames
Codec ID                                 : V_MPEG4/ISO/AVC
Duration                                 : 1h 39mn
Bit rate                                 : 9 600 Kbps
Width                                    : 1 920 pixels
Height                                   : 1 080 pixels
Display aspect ratio                     : 16:9
Frame rate                               : 24.000 fps
Color space                              : YUV
Chroma subsampling                       : 4:2:0
Bit depth                                : 8 bits
Scan type                                : Progressive
Bits/(Pixel*Frame)                       : 0.193
Stream size                              : 6.52 GiB (86%)
Title                                    : Movie 43 (2013)
Writing library                          : x264 core 129 r2245 bc13772
Encoding settings                        : cabac=1 / ref=4 / deblock=1:-3:-3 / analyse=0x3:0x113 / me=umh / subme=10 / psy=1 / psy_rd=1.00:0.00 / mixed_ref=1 / me_range=24 / chroma_me=1 / trellis=2 / 8x8dct=1 / cqm=0 / deadzone=21,11 / fast_pskip=1 / chroma_qp_offset=-2 / threads=6 / lookahead_threads=1 / sliced_threads=0 / nr=0 / decimate=1 / interlaced=0 / bluray_compat=0 / constrained_intra=0 / bframes=6 / b_pyramid=2 / b_adapt=2 / b_bias=0 / direct=2 / weightb=0 / open_gop=0 / weightp=2 / keyint=240 / keyint_min=24 / scenecut=40 / intra_refresh=0 / rc_lookahead=40 / rc=2pass / mbtree=1 / bitrate=9600 / ratetol=1.0 / qcomp=0.60 / qpmin=0 / qpmax=69 / qpstep=4 / cplxblur=20.0 / qblur=0.5 / ip_ratio=1.40 / aq=1:1.00 / zones=132095,143292,q=40
Language                                 : English
Default                                  : Yes
Forced                                   : No

Audio #1
ID                                       : 2
Format                                   : AC-3
Format/Info                              : Audio Coding 3
Mode extension                           : CM (complete main)
Format settings, Endianness              : Big
Codec ID                                 : A_AC3
Duration                                 : 1h 39mn
Bit rate mode                            : Constant
Bit rate                                 : 640 Kbps
Channel(s)                               : 6 channels
Channel positions                        : Front: L C R, Side: L R, LFE
Sampling rate                            : 48.0 KHz
Bit depth                                : 16 bits
Compression mode                         : Lossy
Stream size                              : 456 MiB (6%)
Title                                    : AC3 / 5.1 ch / 640 kbps / ??????? ??????, BD RUS
Language                                 : Russian
Default                                  : Yes
Forced                                   : No

Audio #2
ID                                       : 3
Format                                   : AC-3
Format/Info                              : Audio Coding 3
Mode extension                           : CM (complete main)
Format settings, Endianness              : Big
Codec ID                                 : A_AC3
Duration                                 : 1h 39mn
Bit rate mode                            : Constant
Bit rate                                 : 640 Kbps
Channel(s)                               : 6 channels
Channel positions                        : Front: L C R, Side: L R, LFE
Sampling rate                            : 48.0 KHz
Bit depth                                : 16 bits
Compression mode                         : Lossy
Stream size                              : 456 MiB (6%)
Title                                    : AC3 / 5.1 ch / 640 kbps / ??????? ?????????, ??????????? - ?.?????? [Goblin], BD RUS
Language                                 : Russian
Default                                  : No
Forced                                   : No

Menu
00:00:00.000                             : :Chapter 01
00:06:05.416                             : :Chapter 02
00:14:02.416                             : :Chapter 03
00:20:07.791                             : :Chapter 04
00:29:12.125                             : :Chapter 05
00:34:10.750                             : :Chapter 06
00:44:12.000                             : :Chapter 07
00:50:27.333                             : :Chapter 08
00:57:01.833                             : :Chapter 09
01:03:44.541                             : :Chapter 10
01:11:02.583                             : :Chapter 11
01:16:51.500                             : :Chapter 12
01:22:03.000                             : :Chapter 13
01:24:36.833                             : :Chapter 14
01:31:12.833                             : :Chapter 15